<svg xmlns="http://www.w3.org/2000/svg" viewBox="0 0 504 457.92"><defs><style>.cls-1{fill:#fefefe;}.cls-2{fill:#044e97;}</style></defs><title>Asset 1</title><g id="Layer_2" data-name="Layer 2"><g id="Layer_1-2" data-name="Layer 1"><path class="cls-1" d="M504.36,92.52V458.28H.36V92.52a7.14,7.14,0,0,1,.69,1q20,40.77,40,81.57,25,51,50.07,102a6.66,6.66,0,0,0,2,2.43q33.21,23.72,66.5,47.34l9.91,7.08-45.9,32.67c.43.34.7.57,1,.78q63.06,44.89,126.11,89.81a2.48,2.48,0,0,0,3.36,0q57.4-40.91,114.83-81.77l12.26-8.75L335.3,334c.6-.45,1-.74,1.37-1q37.26-26.57,74.5-53.17a9.25,9.25,0,0,0,2.76-3.37Q441.2,221,468.35,165.54q15.48-31.59,31-63.19C501,99.05,502.68,95.8,504.36,92.52Z" transform="translate(-0.36 -0.36)"/><path class="cls-1" d="M45.36.36h414q-2.39,4.92-4.78,9.83-15.49,31.59-31,63.17-19.87,40.55-39.76,81.07a5.2,5.2,0,0,1-1.58,1.87q-60.39,43-120.82,86c-3,2.15-6,4.28-9.06,6.42l-9.05-6.45Q183,199.35,122.63,156.39a5.88,5.88,0,0,1-1.78-2.14q-22.38-45.51-44.69-91Z" transform="translate(-0.36 -0.36)"/><path class="cls-2" d="M45.36.36,76.16,63.2q22.32,45.52,44.69,91.05a5.88,5.88,0,0,0,1.78,2.14q60.32,43,120.68,85.91l9.05,6.45c3-2.14,6.05-4.27,9.06-6.42q60.42-43,120.82-86a5.2,5.2,0,0,0,1.58-1.87q19.9-40.52,39.76-81.07,15.5-31.59,31-63.17,2.4-4.9,4.78-9.83h.36c.25.66.46,1.35.77,2Q465.22,12,470,21.67q14.4,29.38,28.82,58.78c1.81,3.68,3.71,7.33,5.57,11v1.08c-1.68,3.28-3.41,6.53-5,9.83q-15.51,31.59-31,63.19Q441.16,221,413.93,276.44a9.25,9.25,0,0,1-2.76,3.37Q374,306.45,336.67,333c-.39.27-.77.56-1.37,1l45.86,32.66L368.9,375.4q-57.42,40.88-114.83,81.77a2.48,2.48,0,0,1-3.36,0q-63-44.93-126.11-89.81c-.28-.21-.55-.44-1-.78l45.9-32.67-9.91-7.08q-33.27-23.66-66.5-47.34a6.66,6.66,0,0,1-2-2.43Q66,226.09,41,175.06q-20-40.78-40-81.57a7.14,7.14,0,0,0-.69-1V91.44c.36-.6.76-1.18,1.07-1.81Q20.8,50.18,40.13,10.71C41.81,7.28,43.38,3.81,45,.36ZM443.19,191.9a16.56,16.56,0,0,0-1.92,1l-43.79,31.19-121,86.14c-.35.26-.65.58-1.27,1.12h1.23q35.37,0,70.74,0a4.82,4.82,0,0,0,2.57-1q26.55-18.82,53-37.74a7.5,7.5,0,0,0,2.25-2.66q16.28-33,32.44-66.09c1.94-4,3.79-8,5.68-12,.07-.05.13-.11,0,0C443.18,191.73,443.19,191.81,443.19,191.9ZM12.33,91c-.09,0-.18,0-.05,0l.08,0a9.57,9.57,0,0,0,.45,1.79q5.83,12,11.73,24,13,26.52,26,53a5.67,5.67,0,0,0,1.69,2q13.06,9.39,26.2,18.71l138.42,98.55,16.4,11.68c4.71-14.23,9.37-28.28,14-42.35l-1-.7L145.43,185.82Q91.16,147.18,36.9,108.53,24.6,99.76,12.33,91Zm480.27.42-.27-.29L257.41,258.37c4.69,14.15,9.34,28.18,14,42.35l1.12-.79L342,250.49q55.22-39.31,110.43-78.66a5.17,5.17,0,0,0,1.63-1.82q16.88-34.31,33.71-68.66Q490.19,96.37,492.6,91.38Zm-263.37,220,.08-.36L61.78,191.69a1.21,1.21,0,0,0,0,1Q80.89,231.65,100,270.55a5.29,5.29,0,0,0,1.63,1.83q26.63,19,53.32,37.91a5.83,5.83,0,0,0,3.1,1q34.19.07,68.37,0ZM402.07,141.86l.26.24,85-60.48L459.46,24.89Zm-299.67.25.27-.2-57.4-117L17.44,81.62Zm150,303.06,46-32.79-46-32.8-46.06,32.81Zm54.19-38.59,56.05-39.93-46.06-32.78L289,353.54C294.86,371.32,300.68,388.84,306.57,406.58Zm-90.8-53.05-27.61-19.66L142.1,366.65l56.08,39.93Zm36.56,15.52a27.21,27.21,0,1,0,.71-54.41c-16.07,0-28.53,11.92-28.45,27.29A27.44,27.44,0,0,0,252.33,369.05Z" transform="translate(-0.36 -0.36)"/><path class="cls-1" d="M45,.36c-1.62,3.45-3.19,6.92-4.87,10.35Q20.79,50.18,1.43,89.63c-.31.63-.71,1.21-1.07,1.81V.36Z" transform="translate(-0.36 -0.36)"/><path class="cls-1" d="M504.36,91.44c-1.86-3.66-3.76-7.31-5.57-11Q484.36,51.07,470,21.67,465.23,12,460.49,2.34c-.31-.63-.52-1.32-.77-2h44.64Z" transform="translate(-0.36 -0.36)"/><path class="cls-1" d="M12.34,91q12.27,8.79,24.56,17.58,54.26,38.66,108.53,77.29l100.93,71.86,1,.7c-4.67,14.07-9.33,28.12-14,42.35l-16.4-11.68L78.47,190.5q-13.11-9.34-26.2-18.71a5.67,5.67,0,0,1-1.69-2q-13-26.49-26-53-5.88-12-11.73-24a9.57,9.57,0,0,1-.45-1.79Z" transform="translate(-0.36 -0.36)"/><path class="cls-1" d="M492.6,91.38q-2.42,5-4.84,10Q470.92,135.69,454.05,170a5.17,5.17,0,0,1-1.63,1.82Q397.22,211.19,342,250.49l-69.43,49.44-1.12.79c-4.69-14.17-9.34-28.2-14-42.35L492.33,91.09Z" transform="translate(-0.36 -0.36)"/><path class="cls-1" d="M229.23,311.34h-2.82q-34.18,0-68.37,0a5.83,5.83,0,0,1-3.1-1q-26.7-18.9-53.32-37.91a5.29,5.29,0,0,1-1.63-1.83q-19.11-38.9-38.18-77.83a1.21,1.21,0,0,1,0-1L229.31,311Z" transform="translate(-0.36 -0.36)"/><path class="cls-1" d="M443.15,191.87c-1.89,4-3.74,8-5.68,12Q421.29,236.9,405,269.93a7.5,7.5,0,0,1-2.25,2.66q-26.47,18.93-53,37.74a4.82,4.82,0,0,1-2.57,1q-35.37.07-70.74,0h-1.23c.62-.54.92-.86,1.27-1.12l121-86.14,43.79-31.19a16.56,16.56,0,0,1,1.92-1Z" transform="translate(-0.36 -0.36)"/><path class="cls-1" d="M402.07,141.86l57.39-117,27.83,56.73-85,60.48Z" transform="translate(-0.36 -0.36)"/><path class="cls-1" d="M102.4,142.11l-85-60.49L45.27,24.89l57.4,117Z" transform="translate(-0.36 -0.36)"/><path class="cls-1" d="M252.38,445.17l-46.06-32.78,46.06-32.81,46,32.8Z" transform="translate(-0.36 -0.36)"/><path class="cls-1" d="M306.57,406.58c-5.89-17.74-11.71-35.26-17.62-53l27.61-19.67,46.06,32.78Z" transform="translate(-0.36 -0.36)"/><path class="cls-1" d="M215.77,353.53l-17.59,53.05L142.1,366.65l46.06-32.78Z" transform="translate(-0.36 -0.36)"/><path class="cls-1" d="M252.33,369.05a27.44,27.44,0,0,1-27.74-27.12c-.08-15.37,12.38-27.31,28.45-27.29a27.21,27.21,0,1,1-.71,54.41Z" transform="translate(-0.36 -0.36)"/><path class="cls-1" d="M12.36,90.93l-.08,0c-.13,0,0,0,.05,0Z" transform="translate(-0.36 -0.36)"/><path class="cls-1" d="M443.19,191.9c0-.09,0-.17,0-.06.09-.08,0,0,0,0Z" transform="translate(-0.36 -0.36)"/></g></g></svg>