<?xml version="1.0" encoding="UTF-8" standalone="no"?>
<!-- Created with Inkscape (http://www.inkscape.org/) -->

<svg xmlns:dc="http://purl.org/dc/elements/1.1/" xmlns:cc="http://creativecommons.org/ns#" xmlns:rdf="http://www.w3.org/1999/02/22-rdf-syntax-ns#" xmlns:svg="http://www.w3.org/2000/svg" xmlns="http://www.w3.org/2000/svg" xmlns:sodipodi="http://sodipodi.sourceforge.net/DTD/sodipodi-0.dtd" xmlns:inkscape="http://www.inkscape.org/namespaces/inkscape" id="svg2985" version="1.1" inkscape:version="0.48.5 r10040" width="366.28903" height="237.6763" sodipodi:docname="Southwest_Airlines_Logo-S.jpg">
  <metadata id="metadata2991">
    <rdf:RDF>
      <cc:Work rdf:about="">
        <dc:format>image/svg+xml</dc:format>
        <dc:type rdf:resource="http://purl.org/dc/dcmitype/StillImage" />
        <dc:title></dc:title>
      </cc:Work>
    </rdf:RDF>
  </metadata>
  <defs id="defs2989" />
  <sodipodi:namedview pagecolor="#ffffff" bordercolor="#666666" borderopacity="1" objecttolerance="10" gridtolerance="10" guidetolerance="10" inkscape:pageopacity="0" inkscape:pageshadow="2" inkscape:window-width="1366" inkscape:window-height="706" id="namedview2987" showgrid="false" fit-margin-top="0" fit-margin-left="0" fit-margin-right="0" fit-margin-bottom="0" inkscape:zoom="1.9438202" inkscape:cx="187.13873" inkscape:cy="116.52312" inkscape:window-x="-8" inkscape:window-y="-8" inkscape:window-maximized="1" inkscape:current-layer="svg2985" />
  <g id="g3065" transform="translate(-12.861272,-12.346821)">
    <path sodipodi:nodetypes="ccccc" inkscape:connector-curvature="0" id="rect2995" d="m 12.861272,12.346821 77.167631,0 45.786127,94.658959 -77.682082,0 z" style="fill:#ff9a00;fill-opacity:1;fill-rule:evenodd;stroke:none" />
    <path style="fill:#ff1e1a;fill-opacity:1;fill-rule:evenodd;stroke:none" d="m 101.86127,12.346821 77.16763,0 45.78613,94.658959 -77.68208,0 z" id="path2998" inkscape:connector-curvature="0" sodipodi:nodetypes="ccccc" />
    <path sodipodi:nodetypes="ccccc" inkscape:connector-curvature="0" id="path3000" d="m 190.86127,12.346821 77.16763,0 45.78613,94.658959 -77.68208,0 z" style="fill:#ffbe46;fill-opacity:1;fill-rule:evenodd;stroke:none" />
    <path style="fill:#ff9a00;fill-opacity:1;fill-rule:evenodd;stroke:none" d="m 78.196532,155.36416 77.167628,0 45.78613,94.65896 -77.68208,0 z" id="path3002" inkscape:connector-curvature="0" sodipodi:nodetypes="ccccc" />
    <path sodipodi:nodetypes="ccccc" inkscape:connector-curvature="0" id="path3004" d="m 167.19653,155.36416 77.16763,0 45.78613,94.65896 -77.68208,0 z" style="fill:#ff1e1a;fill-opacity:1;fill-rule:evenodd;stroke:none" />
    <path style="fill:#ffbe46;fill-opacity:1;fill-rule:evenodd;stroke:none" d="m 256.19653,155.36416 77.16763,0 45.78613,94.65896 -77.68208,0 z" id="path3006" inkscape:connector-curvature="0" sodipodi:nodetypes="ccccc" />
    <path inkscape:connector-curvature="0" id="path3026" style="font-size:45px;font-style:normal;font-weight:bold;text-align:start;text-anchor:start;fill:black;font-family:Helvetica" d="m 86.800982,123.80265 0,0 c -0.104815,-1.32897 -0.707393,-2.38266 -1.807738,-3.16109 -1.100378,-0.77839 -2.534778,-1.16759 -4.303204,-1.16761 -1.532658,2e-5 -2.731266,0.32594 -3.595827,0.97775 -0.864578,0.65186 -1.296863,1.56 -1.296855,2.72442 -8e-6,0.83539 0.451926,1.48089 1.355803,1.93653 0.89076,0.45567 2.783644,0.99359 5.678657,1.61377 4.204937,0.91132 7.014789,1.96185 8.429562,3.15159 1.414727,1.17712 2.122102,3.06934 2.122128,5.67668 -2.6e-5,2.62 -1.067639,4.69892 -3.202841,6.23674 -2.135247,1.53783 -5.023696,2.30674 -8.665354,2.30674 -3.654785,0 -6.510485,-0.81638 -8.567108,-2.44913 -2.056633,-1.63275 -3.156994,-3.95531 -3.301088,-6.96769 l 0,0 5.816202,0 0,0 c 0.06549,1.48088 0.622221,2.62001 1.670193,3.4174 1.047954,0.79739 2.508553,1.19609 4.381801,1.19608 1.925619,1e-5 3.428791,-0.3006 4.50952,-0.90181 1.080695,-0.6012 1.621051,-1.4334 1.621071,-2.49659 -2e-5,-1.05053 -0.386457,-1.82261 -1.159311,-2.31624 -0.759792,-0.49361 -2.384135,-1.00622 -4.873034,-1.53783 -4.584852,-0.98723 -7.650145,-2.05675 -9.195886,-3.20855 -1.532651,-1.13912 -2.298974,-2.91742 -2.298972,-5.33493 -2e-6,-2.70858 1.015213,-4.85711 3.045646,-6.44559 2.030424,-1.58842 4.774777,-2.38265 8.23307,-2.38268 3.235572,3e-5 5.86858,0.82274 7.89903,2.46812 2.030408,1.64543 3.156968,3.86674 3.379685,6.66392 l 0,0 z" />
    <path inkscape:connector-curvature="0" id="path3028" style="font-size:45px;font-style:normal;font-weight:bold;text-align:start;text-anchor:start;fill:black;font-family:Helvetica" d="m 110.59632,144.09817 c -4.24427,0 -7.6174,-1.31 -10.1194,-3.93 -2.502022,-2.62 -3.753028,-6.16396 -3.753026,-10.6319 -2e-6,-4.5565 1.251004,-8.17324 3.753026,-10.85022 2.502,-2.67693 5.87513,-4.01541 10.1194,-4.01544 4.27043,3e-5 7.65339,1.33851 10.14888,4.01544 2.49544,2.67698 3.74317,6.29372 3.7432,10.85022 -3e-5,4.46794 -1.24776,8.0119 -3.7432,10.6319 -2.49549,2.62 -5.87845,3.93 -10.14888,3.93 z m 0,-4.95522 c 2.4627,0 4.38833,-0.85118 5.7769,-2.55355 1.38853,-1.70236 2.08281,-4.06606 2.08283,-7.0911 -2e-5,-3.08829 -0.6943,-5.50578 -2.08283,-7.25247 -1.38857,-1.74664 -3.3142,-2.61997 -5.7769,-2.62 -2.44963,3e-5 -4.36871,0.87336 -5.75725,2.62 -1.38856,1.74669 -2.08284,4.16418 -2.08283,7.25247 -1e-5,3.02504 0.69099,5.38874 2.073,7.0911 1.38199,1.70237 3.30435,2.55355 5.76708,2.55355 z" />
    <path inkscape:connector-curvature="0" id="path3030" style="font-size:45px;font-style:normal;font-weight:bold;text-align:start;text-anchor:start;fill:black;font-family:Helvetica" d="m 152.44939,132.82077 c 0.0131,3.98697 -0.89407,6.86327 -2.72143,8.62892 -1.82741,1.76565 -4.80428,2.64848 -8.93062,2.64848 -3.95608,0 -6.8871,-0.9208 -8.79307,-2.76239 -1.90599,-1.8416 -2.86553,-4.67993 -2.87863,-8.51501 l 0,-17.39074 0,0 3.00635,0 3.02599,0 0,0 0,17.5806 c -1e-5,1.99981 0.4683,3.49967 1.40493,4.49956 0.93661,0.99991 2.34808,1.49986 4.23443,1.49986 2.01732,0 3.45826,-0.45881 4.32285,-1.37645 0.86455,-0.91763 1.29684,-2.45862 1.29686,-4.62297 l 0,-17.5806 0,0 3.00635,0 3.02599,0 0,0 z" />
    <path inkscape:connector-curvature="0" id="path3032" style="font-size:45px;font-style:normal;font-weight:bold;text-align:start;text-anchor:start;fill:black;font-family:Helvetica" d="m 164.61233,143.33875 0,-22.9535 0,0 -8.7243,0 0,0 0,-2.46811 0,-2.48711 0,0 23.48095,0 0,0 0,2.46812 0,2.4871 0,0 -8.7243,0 0,0 0,22.9535 0,0 -3.00635,0 -3.026,0 z" />
    <path inkscape:connector-curvature="0" id="path3034" style="font-size:45px;font-style:normal;font-weight:bold;text-align:start;text-anchor:start;fill:black;font-family:Helvetica" d="m 182.7683,143.33875 0,-27.90872 0,0 3.00636,0 3.02599,0 0,0 0,10.46102 0,0 11.29837,0 0,0 0,-10.46102 0,0 3.00634,0 3.026,0 0,0 0,27.90872 0,0 -3.00634,0 -3.026,0 0,0 0,-12.64436 0,0 -11.29837,0 0,0 0,12.64436 0,0 -3.00635,0 -3.026,0 z" />
    <path inkscape:connector-curvature="0" id="path3036" style="font-size:45px;font-style:normal;font-weight:bold;text-align:start;text-anchor:start;fill:black;font-family:Helvetica" d="m 217.68516,143.33875 -8.03657,-27.90872 0,0 3.14389,0 3.1439,0 0,0 4.81408,20.42842 0,0 0,0 4.12637,-20.42842 3.20283,0 3.2225,0 4.1853,20.25755 0,0 0,0 4.79444,-20.25755 0,0 3.04564,0 3.04565,0 0,0 -8.03657,27.90872 -2.86881,0 -2.8688,0 -4.63725,-21.96625 0,0 0,0 -4.53899,21.96625 -2.8688,0 z" />
    <path inkscape:connector-curvature="0" id="path3038" style="font-size:45px;font-style:normal;font-weight:bold;text-align:start;text-anchor:start;fill:black;font-family:Helvetica" d="m 250.02797,143.33875 0,0 0,-27.90872 0,0 21.26057,0 0,0 0,2.46812 0,2.4871 0,0 -15.22823,0 0,0 0,5.92349 0,0 14.12786,0 0,2.39217 0,2.41116 0,0 -14.12786,0 0,0 0,7.27146 0,0 15.89631,0 0,0 0,2.46812 0,2.4871 0,0 z" />
    <path inkscape:connector-curvature="0" id="path3040" style="font-size:45px;font-style:normal;font-weight:bold;text-align:start;text-anchor:start;fill:black;font-family:Helvetica" d="m 292.56877,123.80265 0,0 c -0.10482,-1.32897 -0.7074,-2.38266 -1.80775,-3.16109 -1.10037,-0.77839 -2.53478,-1.16759 -4.3032,-1.16761 -1.53266,2e-5 -2.73127,0.32594 -3.59582,0.97775 -0.86458,0.65186 -1.29687,1.56 -1.29686,2.72442 -10e-6,0.83539 0.45192,1.48089 1.3558,1.93653 0.89077,0.45567 2.78364,0.99359 5.67866,1.61377 4.20494,0.91132 7.01479,1.96185 8.42956,3.15159 1.41472,1.17712 2.1221,3.06934 2.12213,5.67668 -3e-5,2.62 -1.06764,4.69892 -3.20285,6.23674 -2.13524,1.53783 -5.02369,2.30674 -8.66535,2.30674 -3.65478,0 -6.51048,-0.81638 -8.56711,-2.44913 -2.05662,-1.63275 -3.15699,-3.95531 -3.30108,-6.96769 l 0,0 5.8162,0 0,0 c 0.0655,1.48088 0.62222,2.62001 1.67019,3.4174 1.04795,0.79739 2.50855,1.19609 4.3818,1.19608 1.92563,1e-5 3.42879,-0.3006 4.50953,-0.90181 1.08069,-0.6012 1.62105,-1.4334 1.62106,-2.49659 -10e-6,-1.05053 -0.38645,-1.82261 -1.1593,-2.31624 -0.75979,-0.49361 -2.38414,-1.00622 -4.87304,-1.53783 -4.58486,-0.98723 -7.65015,-2.05675 -9.19589,-3.20855 -1.53265,-1.13912 -2.29897,-2.91742 -2.29897,-5.33493 0,-2.70858 1.01521,-4.85711 3.04564,-6.44559 2.03043,-1.58842 4.77479,-2.38265 8.23308,-2.38268 3.23557,3e-5 5.86858,0.82274 7.89902,2.46812 2.03042,1.64543 3.15698,3.86674 3.37969,6.66392 l 0,0 z" />
    <path inkscape:connector-curvature="0" id="path3042" style="font-size:45px;font-style:normal;font-weight:bold;text-align:start;text-anchor:start;fill:black;font-family:Helvetica" d="m 310.01737,143.33875 0,-22.9535 0,0 -8.7243,0 0,0 0,-2.46811 0,-2.48711 0,0 23.48094,0 0,0 0,2.46812 0,2.4871 0,0 -8.7243,0 0,0 0,22.9535 0,0 -3.00634,0 -3.026,0 z" />
  </g>
</svg>
